<svg width="195" height="32" viewBox="0 0 195 32" fill="none" xmlns="http://www.w3.org/2000/svg">
<g id="Logo - Color - Black 1" clip-path="url(#clip0_2330_5981)">
<g id="Group">
<g id="Content_00000058551188790053226060000008882697864556081567_">
<g id="Logo_00000158735283476195760700000003522157152969460918_">
<path id="Vector" fill-rule="evenodd" clip-rule="evenodd" d="M27.6252 8.6H17.4502V4.375C17.4502 1.95 19.4002 0 21.6752 0H32.0002V4.375C32.0002 6.775 30.0502 8.6 27.6252 8.6Z" fill="#6FA1BA"/>
<path id="Vector_2" fill-rule="evenodd" clip-rule="evenodd" d="M32.0002 32H24.7252C20.7002 32 17.4502 28.75 17.4502 24.725V11.625H24.7252C28.7502 11.625 32.0002 14.875 32.0002 18.775V32Z" fill="#79A344"/>
<path id="Vector_3" fill-rule="evenodd" clip-rule="evenodd" d="M4.225 23.4H14.525V27.75C14.525 30.15 12.575 31.975 10.15 31.975H0V27.75C0 25.35 1.95 23.4 4.225 23.4Z" fill="#232254"/>
<path id="Vector_4" fill-rule="evenodd" clip-rule="evenodd" d="M0 0H7.275C11.3 0 14.55 3.25 14.55 7.15V20.375H7.275C3.25 20.35 0 17.1 0 13.1V0Z" fill="#A45EA6"/>
</g>
</g>
<g id="Group_2">
<path id="Vector_5" d="M64.725 5.725V26.275H61.85V12.175L55.475 26.275H53L46.625 12.175V26.275H43.75V5.725H46.625L54.25 22.125L61.85 5.7L64.725 5.725Z" fill="black"/>
<path id="Vector_6" d="M72 8.5V14.1H80.1V16.9H72V23.475H81.225V26.275H69.125V5.725H81.225V8.5H72Z" fill="black"/>
<path id="Vector_7" d="M98.7002 8.5H92.9502V26.275H90.0752V8.5H84.3252V5.725H98.7252V8.5H98.7002Z" fill="black"/>
<path id="Vector_8" d="M111.975 21.275H103L101.1 26.275H98.125L106.05 5.725H108.925L116.85 26.275H113.875L111.975 21.275ZM111 18.6L107.475 9.55L103.95 18.6H111Z" fill="black"/>
<path id="Vector_9" d="M118.35 16C118.225 10.225 123.225 5.375 128.925 5.5C131 5.5 132.925 6.05 134.625 7.15C136.325 8.225 137.6 9.7 138.425 11.525H135.2C133.7 9.45 131.55 8.325 128.95 8.325C124.6 8.325 121.25 11.65 121.25 16.025C121.25 20.4 124.6 23.725 128.95 23.725C132.125 23.725 134.85 21.875 135.9 19.15H130.65V16.65H139.45C139.3 21.7 134.875 26.675 128.95 26.55C123.225 26.625 118.225 21.775 118.35 16Z" fill="black"/>
<path id="Vector_10" d="M142.225 16C142.1 10.225 147.1 5.375 152.8 5.5C154.875 5.5 156.8 6.05 158.5 7.15C160.2 8.225 161.475 9.7 162.3 11.525H159.075C157.575 9.45 155.425 8.325 152.825 8.325C148.475 8.325 145.125 11.65 145.125 16.025C145.125 20.4 148.475 23.725 152.825 23.725C156 23.725 158.725 21.875 159.775 19.15H154.525V16.65H163.325C163.175 21.7 158.75 26.675 152.825 26.55C147.1 26.625 142.125 21.775 142.225 16Z" fill="black"/>
<path id="Vector_11" d="M166.7 26.275V5.725H169.575V26.275H166.7Z" fill="black"/>
<path id="Vector_12" d="M183.525 5.475C189.275 5.35 194.225 10.2 194.1 15.975C194.225 21.75 189.275 26.6 183.525 26.475C177.75 26.6 172.825 21.75 172.95 15.975C172.85 10.2 177.75 5.375 183.525 5.475ZM183.525 8.3C179.275 8.3 175.825 11.725 175.825 16C175.825 20.25 179.25 23.7 183.525 23.7C187.775 23.8 191.3 20.225 191.225 16C191.3 11.775 187.775 8.225 183.525 8.3Z" fill="black"/>
</g>
</g>
</g>
<defs>
<clipPath id="clip0_2330_5981">
<rect width="194.1" height="32" fill="white"/>
</clipPath>
</defs>
</svg>
